<svg id="Layer_1" fill="white" data-name="Layer 1" xmlns="http://www.w3.org/2000/svg" viewBox="0 0 162.77 81.32"><path d="M-.11,7.72c.16,0,.54.11.35,0,.11,0,.94.59.71.4a5.85,5.85,0,0,1,1.53,1.91A37.42,37.42,0,0,1,5,15.88q2.85,7.33,5.41,14.78,5.13,14.9,9.06,30.16,2.2,8.55,4,17.19l5.79-1.6-7.55-30.6c-1.24-5-2.54-10.07-3.71-15.12-1-4.39-2-9.3-.22-13.64,1.1-2.77,3.7-5.48,6.47-5.68a9.14,9.14,0,0,1,1.17,0l.43,0c-.56-.07-.08,0,0,0,.35.1.7.19,1,.3.11,0,.51.23,0,0a5.65,5.65,0,0,1,.6.31,8.39,8.39,0,0,1,.81.5c.47.33.14.11,0,0l.42.37a9.82,9.82,0,0,1,.78.8c.1.1.19.21.28.32s-.15-.23.15.19a17.51,17.51,0,0,1,3,8.35A23.17,23.17,0,0,1,33.14,25c0,.36,0,.73,0,1.09,0,.2,0,.41-.05.61-.09,1,.13-.67-.07.48a40.5,40.5,0,0,1-1.41,5.67,36,36,0,0,1-16,19.56,3,3,0,0,0,3,5.18c3.08-1.51,6.77-3,10.05-3.08a11.81,11.81,0,0,1,1.33,0l.65,0c-.26,0-.21,0,.16.05A10.58,10.58,0,0,1,32,55a2.44,2.44,0,0,1,.71.36,5.09,5.09,0,0,1,2.32,3,7.83,7.83,0,0,1-.21,4.45,10.31,10.31,0,0,1-2.66,4.26c-2.94,3-6.94,4.62-10.7,6.27-2.68,1.17-1.38,5.88,1.51,5.59C37.83,77.4,53.54,75.38,65.11,65A32.11,32.11,0,0,0,75.34,48.38c.73-3.32,1-7-.61-10.09-1.94-3.76-6.11-4.73-10-3.95-6.54,1.32-12.41,6.07-16.33,11.27-4.44,5.88-6.76,13.72-5.3,21,1.25,6.32,6,11.55,11.81,14.15a25,25,0,0,0,19.25.6C88.38,76,95.66,62,99.55,48.14c.52-1.83,1-3.67,1.43-5.51l-5.89-.8a96.08,96.08,0,0,1-9,30.7l5.48,2.32A70.79,70.79,0,0,1,102.47,56.9a73.3,73.3,0,0,1,7.5-7.76c1.13-1,2.39-2.33,3.88-2.79a2.89,2.89,0,0,1,2.68.76c2.6,2.1,3,5.8,3.54,8.93a23.71,23.71,0,0,0,3.76,9.83c4,5.56,10.35,9.4,17.29,9.33,7.55-.07,15.1-4.63,18.2-11.6a3.08,3.08,0,0,0-1.08-4.1c-1.28-.75-3.44-.41-4.1,1.07a14.52,14.52,0,0,1-13.73,8.62,14.72,14.72,0,0,1-7.94-2.89,16.11,16.11,0,0,1-5.25-6.55c-1.34-3.06-1.42-7.08-2.47-10.44a12.94,12.94,0,0,0-7.06-8.38c-4.14-1.71-7.75.33-10.87,3A75.09,75.09,0,0,0,99,51.7,80.08,80.08,0,0,0,85.75,73.25a3,3,0,0,0,5.48,2.31,105,105,0,0,0,9.86-33.73A3,3,0,0,0,95.2,41c-2.88,11.85-7,24.87-17.74,32-4.33,2.88-9.73,4.61-14.57,4s-9.58-3.23-12.1-7.17c-3-4.77-2.5-11.33-.07-16.42A25.17,25.17,0,0,1,61.59,41.94,17.78,17.78,0,0,1,65,40.48a6.15,6.15,0,0,1,3.39-.34c.89.33,1.14.94,1.38,1.89a10.68,10.68,0,0,1,.07,3.3,25,25,0,0,1-7.2,13.78C52.37,69.63,36.93,71.49,23,72.92l1.52,5.59C31.64,75.39,39.65,71.14,41,62.66c.64-3.93-.18-8-3.11-10.88a12.76,12.76,0,0,0-10.11-3.25,34.81,34.81,0,0,0-12.23,3.85l3,5.18A42.21,42.21,0,0,0,36.35,37.07c3.19-7.71,4-16.5,0-24.07A14.15,14.15,0,0,0,28,5.78,12.5,12.5,0,0,0,15.88,9.29C7.62,17.66,11.68,30,14.12,39.93L23.51,78a3,3,0,0,0,5.79-1.6A401.5,401.5,0,0,0,10.19,12.73C8.28,7.87,5.94,2-.11,1.72a3,3,0,0,0-3,3,3.06,3.06,0,0,0,3,3Z" transform="translate(3.11 -1.72)"/></svg>